# xmcd CD database file
#
# Track frame offsets:
#	150
#	17380
#	62717
#
# Disc length: 1065 seconds
#
# Revision: 2
# Processed by: cddbd v1.5.2PL0 Copyright (c) Steve Scherf et al.
# Submitted via: CDex 1.70beta2
#
DISCID=19042703
DTITLE=國府田マリ子 - きっと会えるよね
DYEAR=1995
DGENRE=seiyu
TTITLE0=きっと会えるよね
TTITLE1=若草色の少女 ミユキ 第1話「ユミ」
TTITLE2=きっと会えるよね -off vocal
EXTD=YEAR: 1995
EXTT0=
EXTT1=
EXTT2=
PLAYORDER=
